<?xml version="1.0" encoding="UTF-8" standalone="no"?>
<svg height="100%" style="max-width: 601px; height: auto;zoom: 1;" cursor="default" width="100%" fill="none"
   viewBox="0 0 192 192" version="1.1" id="svg13" sodipodi:docname="cone-logo.svg"
   inkscape:version="1.4.2 (ebf0e940, 2025-05-08)" xmlns:inkscape="http://www.inkscape.org/namespaces/inkscape"
   xmlns:sodipodi="http://sodipodi.sourceforge.net/DTD/sodipodi-0.dtd" xmlns="http://www.w3.org/2000/svg"
   xmlns:svg="http://www.w3.org/2000/svg">
   <sodipodi:namedview id="namedview13" pagecolor="#ffffff" bordercolor="#000000" borderopacity="0.25"
      inkscape:showpageshadow="2" inkscape:pageopacity="0.0" inkscape:pagecheckerboard="0" inkscape:deskcolor="#d1d1d1"
      inkscape:zoom="2.4896051" inkscape:cx="105.03674" inkscape:cy="118.09102" inkscape:window-width="1376"
      inkscape:window-height="947" inkscape:window-x="3518" inkscape:window-y="378" inkscape:window-maximized="0"
      inkscape:current-layer="svg13" />
   <path
      d="m 96.304359,0.49806575 c -23.226451,0 -44.534877,7.90649805 -61.161131,21.07482725 12.823781,9.114488 38.681178,25.210365 61.579451,25.400853 C 119.62095,47.169561 145.76215,31.508987 158.75542,22.61216 141.94219,8.8235768 120.1361,0.49261875 96.304359,0.49261875 v 0.0054"
      fill="url(#paint0_linear_205_1874)" id="path1" style="fill:url(#paint0_linear_205_1874);stroke-width:1.31891" />
   <path
      d="m 144.25705,99.61993 c -0.20984,23.02838 15.94834,47.5863 25.22924,59.76879 14.40827,-16.18252 23.11347,-37.19757 23.11347,-60.1715 0,-22.973822 -8.2694,-42.922318 -22.02664,-58.93115 -9.49747,12.020171 -26.10221,36.305606 -26.31607,59.33928"
      fill="url(#paint1_linear_205_1874)" id="path2" style="fill:url(#paint1_linear_205_1874);stroke-width:1.31891" />
   <path
      d="m 0.01433925,99.21189 c 0,22.64197 8.46176085,43.38517 22.49610575,59.46941 C 32.064388,147.88648 48.108233,125.77178 48.351689,98.809175 48.595145,71.84128 32.952132,49.465855 23.602627,38.506795 8.9105515,54.760461 0.01433925,75.987594 0.01433925,99.21189"
      fill="url(#paint2_linear_205_1874)" id="path3" style="fill:url(#paint2_linear_205_1874);stroke-width:1.31891" />
   <path
      d="m 95.884706,145.31809 c -31.856366,0 -53.119044,14.33704 -63.294411,23.30578 16.97867,14.41981 39.282426,23.17516 63.714064,23.17516 24.431651,0 46.061521,-8.48893 62.937971,-22.51689 -9.27551,-9.32698 -29.2537,-23.96405 -63.363001,-23.96405"
      fill="#1c2140" id="path4" style="stroke-width:1.31891" />
   <path
      d="M 118.34719,73.337576 C 101.13716,59.630483 75.008062,65.822846 67.259181,86.086902 57.598964,111.34628 84.871365,135.2449 110.40729,124.43844 c 21.07035,-8.91313 25.86413,-36.822406 7.9399,-51.100864"
      fill="#1c2140" id="path5" style="stroke-width:1.31891" />
   <defs id="defs13">
      <linearGradient y1="55.0711" id="paint0_linear_205_1874" x1="282.752" y2="-1.20285" x2="280.149"
         gradientUnits="userSpaceOnUse" gradientTransform="matrix(1.3450582,0,0,1.2932573,-1.614525,-1.1833892)">
         <stop stopColor="#0063F7" id="stop5" />
         <stop stopColor="#54B8B0" offset="0.52" id="stop6" />
         <stop stopColor="#DEDB03" offset="1" id="stop7" />
      </linearGradient>
      <linearGradient y1="165.167" id="paint1_linear_205_1874" x1="296.026" y2="32.8235" x2="255.917"
         gradientUnits="userSpaceOnUse" gradientTransform="matrix(1.3450582,0,0,1.2932573,-1.614525,-1.1833892)">
         <stop stopColor="#0063F7" id="stop8" />
         <stop stopColor="#54B8B0" offset="0.52" id="stop9" />
         <stop stopColor="#DEDB03" offset="1" id="stop10" />
      </linearGradient>
      <linearGradient y1="164.962" id="paint2_linear_205_1874" x1="188.785" y2="31.6326" x2="148.009"
         gradientUnits="userSpaceOnUse" gradientTransform="matrix(1.3450582,0,0,1.2932573,-1.614525,-1.1833892)">
         <stop stopColor="#0063F7" id="stop11" />
         <stop stopColor="#54B8B0" offset="0.52" id="stop12" />
         <stop stopColor="#DEDB03" offset="1" id="stop13" />
      </linearGradient>
   </defs>
</svg>