<?xml version="1.0" encoding="UTF-8" standalone="no"?>
<svg
   width="2560"
   height="512"
   viewBox="0 0 677.33333 135.46667"
   version="1.1"
   id="svg8"
   inkscape:version="1.4.2 (ebf0e940, 2025-05-08)"
   sodipodi:docname="dnde-banner.svg"
   xmlns:inkscape="http://www.inkscape.org/namespaces/inkscape"
   xmlns:sodipodi="http://sodipodi.sourceforge.net/DTD/sodipodi-0.dtd"
   xmlns="http://www.w3.org/2000/svg"
   xmlns:svg="http://www.w3.org/2000/svg"
   xmlns:rdf="http://www.w3.org/1999/02/22-rdf-syntax-ns#"
   xmlns:cc="http://creativecommons.org/ns#"
   xmlns:dc="http://purl.org/dc/elements/1.1/">
  <defs
     id="defs2">
    <rect
       x="46.337429"
       y="8.8407688"
       width="99.502892"
       height="31.513607"
       id="rect24" />
    <rect
       x="46.337429"
       y="8.8407688"
       width="99.502892"
       height="31.513607"
       id="rect99" />
    <linearGradient
       id="paint2_linear_205_1874"
       x1="188.785"
       y1="164.96201"
       x2="148.009"
       y2="31.632601"
       gradientUnits="userSpaceOnUse"
       gradientTransform="matrix(0.60263031,0,0,0.60263031,168.98931,21.800548)">
      <stop
         stopColor="#0063F7"
         id="stop14" />
      <stop
         offset="0.52"
         stopColor="#54B8B0"
         id="stop15" />
      <stop
         offset="1"
         stopColor="#DEDB03"
         id="stop16" />
    </linearGradient>
    <linearGradient
       id="paint1_linear_205_1874"
       x1="296.026"
       y1="165.16701"
       x2="255.91701"
       y2="32.823502"
       gradientUnits="userSpaceOnUse"
       gradientTransform="matrix(0.60263031,0,0,0.60263031,168.98931,21.800548)">
      <stop
         stopColor="#0063F7"
         id="stop11" />
      <stop
         offset="0.52"
         stopColor="#54B8B0"
         id="stop12" />
      <stop
         offset="1"
         stopColor="#DEDB03"
         id="stop13" />
    </linearGradient>
    <linearGradient
       id="paint0_linear_205_1874"
       x1="282.75201"
       y1="55.071098"
       x2="280.14899"
       y2="-1.20285"
       gradientUnits="userSpaceOnUse"
       gradientTransform="matrix(0.60263031,0,0,0.60263031,168.98931,21.800548)">
      <stop
         stopColor="#0063F7"
         id="stop8" />
      <stop
         offset="0.52"
         stopColor="#54B8B0"
         id="stop9" />
      <stop
         offset="1"
         stopColor="#DEDB03"
         id="stop10" />
    </linearGradient>
  </defs>
  <sodipodi:namedview
     id="base"
     pagecolor="#ffffff"
     bordercolor="#666666"
     borderopacity="1.0"
     inkscape:pageopacity="0.0"
     inkscape:pageshadow="2"
     inkscape:zoom="0.23846887"
     inkscape:cx="1926.8762"
     inkscape:cy="551.43466"
     inkscape:document-units="mm"
     inkscape:current-layer="layer1"
     inkscape:document-rotation="0"
     showgrid="false"
     units="px"
     inkscape:snap-page="true"
     inkscape:window-width="1376"
     inkscape:window-height="748"
     inkscape:window-x="3695"
     inkscape:window-y="323"
     inkscape:window-maximized="0"
     inkscape:showpageshadow="2"
     inkscape:pagecheckerboard="0"
     inkscape:deskcolor="#d1d1d1" />
  <metadata
     id="metadata5">
    <rdf:RDF>
      <cc:Work
         rdf:about="">
        <dc:format>image/svg+xml</dc:format>
        <dc:type
           rdf:resource="http://purl.org/dc/dcmitype/StillImage" />
        <dc:title />
      </cc:Work>
    </rdf:RDF>
  </metadata>
  <g
     inkscape:label="Layer 1"
     inkscape:groupmode="layer"
     id="layer1">
    <path
       d="m 299.63896,24.391954 c -10.40621,0 -19.95308,3.684271 -27.40221,9.820418 5.74549,4.247172 17.33045,11.7475 27.58964,11.836283 10.25916,0.09133 21.97129,-7.20626 27.79271,-11.352007 -7.5329,-6.425182 -17.30273,-10.307222 -27.98014,-10.307222 z"
       fill="url(#paint0_linear_205_1874)"
       id="path1"
       style="fill:url(#paint0_linear_205_1874);stroke-width:0.60263" />
    <path
       d="m 321.12333,70.580648 c -0.0941,10.730729 7.1454,22.174207 11.30354,27.850973 6.45538,-7.54071 10.3556,-17.333273 10.3556,-28.03863 0,-10.705311 -3.70498,-20.000888 -9.86868,-27.460673 -4.25517,5.601148 -11.69464,16.917645 -11.79046,27.650858"
       fill="url(#paint1_linear_205_1874)"
       id="path2-7"
       style="fill:url(#paint1_linear_205_1874);stroke-width:0.60263" />
    <path
       d="m 256.49786,70.390509 c 0,10.550681 3.79114,20.21656 10.079,27.711467 4.28047,-5.03014 11.46865,-15.33513 11.57773,-27.899123 0.1091,-12.566477 -6.89951,-22.992934 -11.08839,-28.099626 -6.58255,7.573851 -10.56834,17.465241 -10.56834,28.287282 z"
       fill="url(#paint2_linear_205_1874)"
       id="path3"
       style="fill:url(#paint2_linear_205_1874);stroke-width:0.60263" />
    <path
       d="m 299.45094,91.874996 c -14.2727,0 -23.79907,6.680757 -28.35798,10.860024 7.60701,6.71935 17.59982,10.79916 28.546,10.79916 10.94617,0 20.63708,-3.95565 28.19827,-10.49243 -4.15572,-4.346171 -13.1066,-11.166754 -28.38871,-11.166754"
       fill="#1c2140"
       id="path4-9"
       style="stroke-width:0.60263" />
    <path
       d="m 309.51486,58.333635 c -7.71065,-6.387236 -19.41735,-3.501716 -22.8891,5.940907 -4.32809,11.770321 7.89084,22.906565 19.33179,17.871005 9.4402,-4.153332 11.58797,-17.158463 3.55731,-23.811912 z"
       fill="#1c2140"
       id="path5"
       style="stroke-width:0.60263" />
    <path
       d="m 171.06305,69.178428 c 0,24.737688 20.69316,43.290312 44.31234,43.290312 14.84117,0 25.91931,-6.38971 33.02613,-17.315417 1.46319,-2.061607 0.62674,-4.123207 -1.46258,-5.771404 l -8.98884,-7.626827 c -1.6711,-1.23739 -3.76281,-0.82408 -5.226,0.61884 -3.76289,3.504307 -7.73367,7.832384 -16.7224,7.832384 -11.286,0 -20.27476,-9.275304 -20.27476,-21.027888 0,-11.752551 9.19668,-21.027818 20.48521,-21.027818 5.85219,0 11.0781,2.88552 14.42263,6.597677 1.46319,1.23738 3.34458,2.26683 5.226,0.61872 l 9.61497,-9.069905 c 2.08932,-1.44276 2.50754,-3.917504 1.04435,-5.771085 -7.94385,-9.483165 -17.97723,-14.635546 -30.93681,-14.635546 -23.40874,-0.0023 -44.52024,18.963825 -44.52024,43.287957 z"
       fill="#1c2140"
       id="path6-0"
       style="stroke-width:0.60263" />
    <path
       d="m 352.71925,106.49003 c 0,2.06161 1.88139,3.91772 3.97073,3.91772 h 15.4671 c 3.97073,0 5.22602,-1.03232 5.22602,-3.91772 V 61.138025 c 2.08932,-5.56564 8.7785,-12.987411 19.64876,-12.987411 10.03318,0 15.67742,6.803045 15.67742,17.521066 v 40.81594 c 0,2.06102 1.67351,3.9171 3.97073,3.9171 h 17.14063 c 2.08932,0 3.97073,-1.85608 3.97073,-3.9171 V 66.909063 c 0,-21.438592 -10.65932,-41.02112 -37.207,-41.02112 -16.09625,0 -26.33797,8.864508 -29.47164,12.163308 l -2.92638,-7.627125 c -0.62613,-1.442759 -1.67048,-2.474766 -3.55189,-2.474766 h -7.94208 c -2.08932,0 -3.97074,1.648204 -3.97074,3.917594 v 74.623076 z"
       fill="#1c2140"
       id="path7"
       style="stroke-width:0.60263" />
    <path
       d="m 471.52057,58.871163 c 1.04437,-7.832501 7.94388,-14.016821 16.30357,-14.016821 8.3603,0 14.63067,6.389696 15.25921,14.016821 z M 447.33341,69.17843 c 0,23.705386 17.76674,43.29031 42.84883,43.29031 13.58568,0 24.24804,-4.94699 31.14513,-11.33672 2.08932,-1.648217 1.67351,-3.917101 0.21023,-5.359815 l -8.57001,-9.689089 c -1.46319,-1.648181 -3.34461,-1.237201 -5.43392,0 -3.76281,2.680508 -9.82589,5.15491 -16.30416,5.15491 -12.12252,0 -19.44025,-9.482938 -20.06699,-17.934165 h 53.51177 c 1.88142,0 3.76283,-1.44276 3.97074,-3.504177 0.20795,-1.442759 0.41822,-4.122879 0.41822,-5.565707 0,-22.262672 -17.55885,-38.340955 -39.086,-38.340955 -24.87478,0 -42.64151,19.995809 -42.64151,43.290488"
       fill="#1c2140"
       id="path8"
       style="stroke-width:0.60263" />
  </g>
</svg>
